<svg fill-rule="evenodd" stroke-linecap="round" stroke-linejoin="round" stroke-miterlimit="2" clip-rule="evenodd" viewBox="0 0 64 64">
  <path fill="none" d="M0 0h64v64H0z"/>
  <path fill="none" stroke="currentColor" stroke-width="2" d="M11.694 38.182l1.412-1.413a1.785 1.785 0 012.52 0l1.044 1.044a1.782 1.782 0 002.52 0l1.044-1.044a1.782 1.782 0 012.52 0l1.043 1.044a1.783 1.783 0 002.52 0l1.044-1.044a1.782 1.782 0 012.52 0l1.044 1.044a1.782 1.782 0 002.519 0l1.044-1.044a1.783 1.783 0 012.52 0l1.044 1.044a1.782 1.782 0 002.52 0l1.043-1.044a1.785 1.785 0 012.52 0l1.044 1.044a1.782 1.782 0 002.52 0l1.044-1.044a1.782 1.782 0 012.52 0l1.043 1.044M13.291 43h37.418M13.291 31h37.418M52.491 51.99a4.008 4.008 0 00-4.008-4.008H15.517a4.008 4.008 0 00-4.008 4.008v.002A4.008 4.008 0 0015.517 56h32.966a4.008 4.008 0 004.008-4.008v-.002zM51.6 23.88A16.879 16.879 0 0034.72 7h-5.492C19.934 7 12.4 14.534 12.4 23.828v.002A2.17 2.17 0 0014.57 26h34.912a2.12 2.12 0 002.118-2.118v-.002z"/>
  <circle cx="22.2" cy="22.591" r="1.336" fill="currentColor"/>
  <circle cx="36.9" cy="14.127" r="1.336" fill="currentColor"/>
  <circle cx="43.705" cy="21.255" r="1.336" fill="currentColor"/>
  <circle cx="22.2" cy="15.018" r="1.336" fill="currentColor"/>
</svg>
