<svg fill-rule="evenodd" stroke-linecap="round" stroke-linejoin="round" stroke-miterlimit="2" clip-rule="evenodd" viewBox="0 0 64 64">
  <path fill="none" d="M0 0h64v64H0z"/>
  <path fill="none" stroke="currentColor" stroke-width="2" d="M40.305 22.751c1.371-5.684.108-11.138-1.027-14.419a1.948 1.948 0 00-3.342-.536c-5.802 7.147-22.048 27.356-28.309 35.145a4.454 4.454 0 00.321 5.941l7.167 7.167a4.455 4.455 0 005.941.322l35.04-28.17a1.99 1.99 0 00-.617-3.441c-6.269-2.011-20.142-4.744-30.643 5.757-1.854 1.854-3.4 3.651-4.689 5.374M17.761 39.466c-5.509 9.377-3.425 15.804-3.425 15.804"/>
  <path fill="none" stroke="currentColor" stroke-width="2" d="M41.037 14.316a2.836 2.836 0 013.808 1.103 2.835 2.835 0 013.48 4.189 2.83 2.83 0 012.434 3.391"/>
  <path fill="none" stroke="currentColor" stroke-width="2" d="M40.724 10.627a10.202 10.202 0 0110.067 2.58 10.202 10.202 0 012.571 10.094"/>
  <path fill="none" stroke="currentColor" stroke-width="2" d="M39.666 7.691a3.14 3.14 0 015.157 1.116 3.14 3.14 0 015.041 1.608 3.137 3.137 0 014.027 4.027 3.14 3.14 0 011.607 5.04 3.14 3.14 0 011.117 5.157M17.541 35.24l6.409 1.602"/>
</svg>
