<svg fill-rule="evenodd" stroke-linecap="round" stroke-linejoin="round" stroke-miterlimit="2" clip-rule="evenodd" viewBox="0 0 64 64">
  <path fill="none" d="M0 0h64v64H0z"/>
  <path fill="none" stroke="currentColor" stroke-width="2" d="M51.8 19.271a4.997 4.997 0 000-7.069l-.002-.002a4.998 4.998 0 00-7.069 0L12.2 44.729a4.997 4.997 0 000 7.069l.002.002a4.998 4.998 0 007.069 0L51.8 19.271zM52.506 19.979l1.313 1.314a7.142 7.142 0 01.001 10.101L31.394 53.82a7.142 7.142 0 01-10.101-.001l-1.314-1.313"/>
  <path fill="none" stroke="currentColor" stroke-width="2" d="M30.169 49.261l-1.832 1.831a2.41 2.41 0 01-3.408 0s0 0 0 0M11.494 44.021l-1.313-1.314a7.142 7.142 0 01-.001-10.101L32.606 10.18a7.142 7.142 0 0110.101.001l1.314 1.313"/>
  <path fill="currentColor" d="M49.324 29.525a1.5 1.5 0 11-2.12 2.121 1.5 1.5 0 012.12-2.121zM21.04 28.818a1.5 1.5 0 11-2.121 2.123 1.5 1.5 0 012.121-2.123zM34.475 15.383a1.5 1.5 0 11-2.121 2.123 1.5 1.5 0 012.121-2.123z"/>
</svg>
