<svg fill-rule="evenodd" stroke-linecap="round" stroke-linejoin="round" stroke-miterlimit="2" clip-rule="evenodd" viewBox="0 0 64 64">
  <path fill="none" d="M0 0h64v64H0z"/>
  <path fill="none" stroke="currentColor" stroke-width="2" d="M43.244 49.155a3.808 3.808 0 012.976 1.76 3.807 3.807 0 01.328 3.442c.029.045.017.075.006.104a3.854 3.854 0 01-3.602 2.439C22.417 56.626 6.917 41.125 6.843 20.792a3.861 3.861 0 012.443-3.575c.014-.026.035-.035.056-.043a3.88 3.88 0 015.298 3.362c1.048 16.132 12.468 27.541 28.604 28.619z"/>
  <path fill="none" stroke="currentColor" stroke-width="2" d="M27.703 24.967a3.358 3.358 0 11-4.749 4.748 3.358 3.358 0 014.749-4.748zM41.44 27.059l.509 2.656M35.417 17.312a3.306 3.306 0 011.906-4.914c5.225-1.513 14.366-4.115 14.366-4.115a3.532 3.532 0 014.361 4.361l-2.644 9.29a3.328 3.328 0 01-5.734 1.25l-.002-.004c-2.869-3.366-1.026-2.361-6.516-2.172-2.726.095-4.57-1.782-5.737-3.696z"/>
  <path fill="none" stroke="currentColor" stroke-width="2" d="M50.462 24.343l-7.064 24.824a3.344 3.344 0 00-.141-.011C27.099 48.082 15.667 36.65 14.636 20.49l-.012-.15 20.475-5.827a3.307 3.307 0 00.318 2.799c1.167 1.914 3.011 3.791 5.737 3.696 5.49-.189 3.647-1.194 6.516 2.172l.002.004a3.331 3.331 0 002.79 1.159z"/>
</svg>
