<svg fill-rule="evenodd" stroke-linecap="round" stroke-linejoin="round" stroke-miterlimit="2" clip-rule="evenodd" viewBox="0 0 64 64">
  <path fill="none" d="M0 0h64v64H0z"/>
  <path fill="none" stroke="currentColor" stroke-width="2" d="M54.448 33a1.335 1.335 0 011.322 1.534l-.726 4.839A16 16 0 0139.221 53H24.779A16 16 0 018.956 39.373l-.726-4.839A1.335 1.335 0 019.552 33h44.896zM47.5 45.284a15.105 15.105 0 01-9.6 3.432"/>
  <path fill="none" stroke="currentColor" stroke-width="2" d="M43 52.503V57H21v-4.497M12.3 33a10.161 10.161 0 013.085-2.524 5.391 5.391 0 015.667-6.547 6.986 6.986 0 015.941-2.013c1.295-6.811 8.282-6.624 11.959-3.805 4.507.19 4.917 2.734 4.917 2.734a5.003 5.003 0 013.88 6.49c.505.472.961.994 1.362 1.558A5.01 5.01 0 0152.941 33M26.5 28.5l-1-.5M42.5 29l.5-.5M15.444 20.109s-2.036-1.336-.627-3.838c2.195-3.898-.941-5.256-.941-5.256M51.373 20.109s2.037-1.336.627-3.838c-2.195-3.898.941-5.256.941-5.256M25.347 14.573s-2.036-1.335-.627-3.838c2.195-3.897-.941-5.256-.941-5.256M41.47 14.573s2.037-1.335.627-3.838c-2.195-3.897.941-5.256.941-5.256"/>
</svg>
