<svg fill-rule="evenodd" stroke-linecap="round" stroke-linejoin="round" stroke-miterlimit="2" clip-rule="evenodd" viewBox="0 0 64 64">
  <path fill="none" d="M0 0h64v64H0z"/>
  <path fill="none" stroke="currentColor" stroke-width="2" d="M27.667 20.608L6.982 31.559a1.845 1.845 0 00.864 3.477h48.308a1.846 1.846 0 001.342-3.113l-16.103-17.05a1.846 1.846 0 00-2.205-.364L32 18.314"/>
  <path fill="none" stroke="currentColor" stroke-width="2" d="M6 33.635v3.868a1.867 1.867 0 001.867 1.866h48.266A1.866 1.866 0 0058 37.503v-4.092M6 43.801v5.618a1.867 1.867 0 001.867 1.867h48.266A1.867 1.867 0 0058 49.419v-5.618"/>
  <path fill="none" stroke="currentColor" stroke-width="2" d="M32 39.369l7.255 8.864 7.255-8.864M6 43.703v.542c0 1.196.97 2.166 2.166 2.166h.001a2.166 2.166 0 002.166-2.166v-.51.51a2.169 2.169 0 002.166 2.166h.002a2.166 2.166 0 002.166-2.166v-.51.51a2.168 2.168 0 002.166 2.166h.001A2.168 2.168 0 0019 44.245v-.51.51a2.168 2.168 0 002.166 2.166h.001a2.166 2.166 0 002.166-2.166v-.51.51a2.169 2.169 0 002.166 2.166h.002a2.166 2.166 0 002.166-2.166v-.51.47c0 1.218.987 2.206 2.206 2.206 0 0 0 0 0 0a2.206 2.206 0 002.206-2.206v-.47M45 43.735v.51a2.168 2.168 0 002.166 2.166h.001a2.166 2.166 0 002.166-2.166v-.51.51a2.169 2.169 0 002.166 2.166h.002a2.166 2.166 0 002.166-2.166v-.51.51a2.168 2.168 0 002.166 2.166h.001A2.168 2.168 0 0058 44.245v-.51M32 14.994v11.917M30.104 27.453h3.792"/>
</svg>
